<svg width="22" height="22" viewBox="0 0 22 22" fill="none" xmlns="http://www.w3.org/2000/svg">
<path d="M4.67645 18.1176V18.6176H5.17645H16.8235H17.3235V18.1176V11.6471V11.0238L16.715 11.159L14.925 11.5567C15.616 10.6955 16.0294 9.60189 16.0294 8.41176C16.0294 5.6341 13.7777 3.38235 11 3.38235C8.22232 3.38235 5.97058 5.6341 5.97058 8.41176C5.97058 9.60189 6.38396 10.6955 7.07496 11.5568L5.28492 11.159L4.67645 11.0238V11.6471V18.1176ZM15.0294 8.41176C15.0294 10.0066 14.1028 11.3851 12.7586 12.0382L11 12.429L9.24139 12.0382C7.89717 11.3851 6.97058 10.0066 6.97058 8.41176C6.97058 6.18638 8.77461 4.38235 11 4.38235C13.2254 4.38235 15.0294 6.18638 15.0294 8.41176ZM8.91522 12.9901C9.55036 13.2798 10.2563 13.4412 11 13.4412C11.7436 13.4412 12.4496 13.2798 13.0848 12.9901L16.3235 12.2704V17.6176H5.67645V12.2704L8.91522 12.9901ZM0.5 3C0.5 1.61929 1.61929 0.5 3 0.5H19C20.3807 0.5 21.5 1.61929 21.5 3V19C21.5 20.3807 20.3807 21.5 19 21.5H3C1.61929 21.5 0.5 20.3807 0.5 19V3Z" stroke="#9698D6"/>
</svg>
