<svg width="22" height="22" viewBox="0 0 22 22" fill="none" xmlns="http://www.w3.org/2000/svg">
<path d="M10.353 4.6765H9.85297V5.1765V6.61768H3.8823H3.3823V7.11768V16.3236H1.29407V17.3236H3.3823H3.8823H10.3529H10.8529H20.7058V16.3236H18.6177V5.1765V4.6765H18.1177H10.353ZM4.3823 7.61768H9.85289V16.3236H4.3823V7.61768ZM10.8529 16.3236V7.62852H10.853V5.6765H17.6177V16.3236H10.8529ZM5.82355 10.853H7.76472V9.85298H5.82355V10.853ZM5.82355 14.7353H7.76472V13.7353H5.82355V14.7353ZM12.2941 8.9118H15.5294V7.9118H12.2941V8.9118ZM12.2941 12.1471H15.5294V11.1471H12.2941V12.1471ZM12.2941 14.7353H15.5294V13.7353H12.2941V14.7353ZM0.5 3C0.5 1.61929 1.61929 0.5 3 0.5H19C20.3807 0.5 21.5 1.61929 21.5 3V19C21.5 20.3807 20.3807 21.5 19 21.5H3C1.61929 21.5 0.5 20.3807 0.5 19V3Z" stroke="#9698D6"/>
</svg>
